<svg xmlns="http://www.w3.org/2000/svg" width="720" height="720" viewBox="0 0 520 520">
<defs>
<marker id="arrow" markerWidth="8" markerHeight="8" refX="7" refY="4" orient="auto">
<path d="M0,0 L8,4 L0,8 z" fill="#64748b" />
</marker>
</defs>
<rect x="0" y="0" width="520" height="520" fill="#ffffff" />
<g transform="translate(91.25 0)">
<polyline points="135,40 118,40 118,150 110,150" fill="none" stroke="#64748b" stroke-width="1.5" stroke-linecap="round" stroke-linejoin="round" marker-end="url(#arrow)" />
<polyline points="177,60 177,68 180,68 180,130" fill="none" stroke="#64748b" stroke-width="1.5" stroke-linecap="round" stroke-linejoin="round" marker-end="url(#arrow)" />
<polyline points="65,170 65,178 119.5,178 119.5,240" fill="none" stroke="#64748b" stroke-width="1.5" stroke-linecap="round" stroke-linejoin="round" marker-end="url(#arrow)" />
<polyline points="180,170 180,178 125.5,178 125.5,240" fill="none" stroke="#64748b" stroke-width="1.5" stroke-linecap="round" stroke-linejoin="round" marker-end="url(#arrow)" />
<polyline points="122.5,280 122.5,350" fill="none" stroke="#64748b" stroke-width="1.5" stroke-linecap="round" stroke-linejoin="round" marker-end="url(#arrow)" />
<polyline points="167.5,260 219.5,260 219.5,370 227.5,370" fill="none" stroke="#64748b" stroke-width="1.5" stroke-linecap="round" stroke-linejoin="round" marker-end="url(#arrow)" />
<polyline points="122.5,390 122.5,398 177,398 177,460" fill="none" stroke="#64748b" stroke-width="1.5" stroke-linecap="round" stroke-linejoin="round" marker-end="url(#arrow)" />
<polyline points="272.5,390 272.5,398 183,398 183,460" fill="none" stroke="#64748b" stroke-width="1.5" stroke-linecap="round" stroke-linejoin="round" marker-end="url(#arrow)" />
<polyline points="183,60 183,68 272.5,68 272.5,350" fill="none" stroke="#64748b" stroke-width="1.5" stroke-linecap="round" stroke-linejoin="round" marker-end="url(#arrow)" />
<rect x="135" y="20" width="90" height="40" rx="4" fill="#eef2ff" stroke="#4338ca" stroke-width="2" />
<text x="180" y="40" text-anchor="middle" dominant-baseline="middle" font-family="sans-serif" font-size="14" fill="#111827">fetch</text>
<rect x="20" y="130" width="90" height="40" rx="4" fill="#eef2ff" stroke="#4338ca" stroke-width="2" />
<text x="65" y="150" text-anchor="middle" dominant-baseline="middle" font-family="sans-serif" font-size="14" fill="#111827">compile</text>
<rect x="135" y="130" width="90" height="40" rx="4" fill="#eef2ff" stroke="#4338ca" stroke-width="2" />
<text x="180" y="150" text-anchor="middle" dominant-baseline="middle" font-family="sans-serif" font-size="14" fill="#111827">lint</text>
<rect x="77.5" y="240" width="90" height="40" rx="4" fill="#eef2ff" stroke="#4338ca" stroke-width="2" />
<text x="122.5" y="260" text-anchor="middle" dominant-baseline="middle" font-family="sans-serif" font-size="14" fill="#111827">build</text>
<rect x="77.5" y="350" width="90" height="40" rx="4" fill="#eef2ff" stroke="#4338ca" stroke-width="2" />
<text x="122.5" y="370" text-anchor="middle" dominant-baseline="middle" font-family="sans-serif" font-size="14" fill="#111827">test</text>
<rect x="227.5" y="350" width="90" height="40" rx="4" fill="#eef2ff" stroke="#4338ca" stroke-width="2" />
<text x="272.5" y="370" text-anchor="middle" dominant-baseline="middle" font-family="sans-serif" font-size="14" fill="#111827">package</text>
<rect x="135" y="460" width="90" height="40" rx="4" fill="#eef2ff" stroke="#4338ca" stroke-width="2" />
<text x="180" y="480" text-anchor="middle" dominant-baseline="middle" font-family="sans-serif" font-size="14" fill="#111827">publish</text>
</g>
</svg>