<svg xmlns="http://www.w3.org/2000/svg" width="720" height="720" viewBox="0 0 989.7919188535093 989.7919188535093">
<defs>
<marker id="arrow" markerWidth="8" markerHeight="8" refX="7" refY="4" orient="auto">
<path d="M0,0 L8,4 L0,8 z" fill="#64748b" />
</marker>
</defs>
<rect x="0" y="0" width="989.7919188535093" height="989.7919188535093" fill="#ffffff" />
<g transform="translate(46.281567139118806 0)">
<polyline points="504.61439228763584,381.6509215319205 548.3338960236819,381.6509215319205 548.3338960236819,287.1274219783224 556.3338960236819,287.1274219783224" fill="none" stroke="#64748b" stroke-width="1.5" stroke-linecap="round" stroke-linejoin="round" marker-end="url(#arrow)" />
<polyline points="448.61439228763584,398.6509215319205 448.61439228763584,553.6979206391168" fill="none" stroke="#64748b" stroke-width="1.5" stroke-linecap="round" stroke-linejoin="round" marker-end="url(#arrow)" />
<polyline points="392.61439228763584,381.6509215319205 348.8948885515898,381.6509215319205 348.8948885515898,287.12742197832233 340.8948885515898,287.12742197832233" fill="none" stroke="#64748b" stroke-width="1.5" stroke-linecap="round" stroke-linejoin="round" marker-end="url(#arrow)" />
<polyline points="612.3338960236819,270.1274219783224 612.3338960236819,262.1274219783224 612.6632299708039,262.1274219783224 612.6632299708039,58" fill="none" stroke="#64748b" stroke-width="1.5" stroke-linecap="round" stroke-linejoin="round" marker-end="url(#arrow)" />
<polyline points="668.3338960236819,287.1274219783224 753.2287845752717,287.1274219783224 753.2287845752717,297.5170919259768 761.2287845752717,297.5170919259768" fill="none" stroke="#64748b" stroke-width="1.5" stroke-linecap="round" stroke-linejoin="round" marker-end="url(#arrow)" />
<polyline points="612.3338960236819,304.1274219783224 612.3338960236819,312.1274219783224 744.220183423859,312.1274219783224 744.220183423859,600.3886735625883" fill="none" stroke="#64748b" stroke-width="1.5" stroke-linecap="round" stroke-linejoin="round" marker-end="url(#arrow)" />
<polyline points="448.61439228763584,587.6979206391168 448.61439228763584,595.6979206391168 445.61439228763584,595.6979206391168 445.61439228763584,742.7449197463129" fill="none" stroke="#64748b" stroke-width="1.5" stroke-linecap="round" stroke-linejoin="round" marker-end="url(#arrow)" />
<polyline points="392.61439228763584,567.6979206391168 144,567.6979206391168 144,294.5170919259768 136,294.5170919259768" fill="none" stroke="#64748b" stroke-width="1.5" stroke-linecap="round" stroke-linejoin="round" marker-end="url(#arrow)" />
<polyline points="392.61439228763584,573.6979206391168 217.00860115141273,573.6979206391168 217.00860115141273,617.3886735625883 209.00860115141273,617.3886735625883" fill="none" stroke="#64748b" stroke-width="1.5" stroke-linecap="round" stroke-linejoin="round" marker-end="url(#arrow)" />
<polyline points="228.89488855158982,287.12742197832233 220.89488855158982,287.12742197832233 220.89488855158982,300.5170919259768 136,300.5170919259768" fill="none" stroke="#64748b" stroke-width="1.5" stroke-linecap="round" stroke-linejoin="round" marker-end="url(#arrow)" />
<polyline points="284.8948885515898,270.12742197832233 284.8948885515898,262.12742197832233 278.5655546044678,262.12742197832233 278.5655546044678,58" fill="none" stroke="#64748b" stroke-width="1.5" stroke-linecap="round" stroke-linejoin="round" marker-end="url(#arrow)" />
<polyline points="451.61439228763584,742.7449197463129 451.61439228763584,734.7449197463129 384.61439228763584,734.7449197463129 384.61439228763584,66 284.5655546044678,66 284.5655546044678,58" fill="none" stroke="#64748b" stroke-width="1.5" stroke-linecap="round" stroke-linejoin="round" marker-end="url(#arrow)" />
<polyline points="153.00860115141273,634.3886735625883 153.00860115141273,923.7919188535093 445.61439228763584,923.7919188535093 445.61439228763584,931.7919188535093" fill="none" stroke="#64748b" stroke-width="1.5" stroke-linecap="round" stroke-linejoin="round" marker-end="url(#arrow)" />
<polyline points="290.5655546044678,58 290.5655546044678,66 348.8948885515898,66 348.8948885515898,923.7919188535093 451.61439228763584,923.7919188535093 451.61439228763584,931.7919188535093" fill="none" stroke="#64748b" stroke-width="1.5" stroke-linecap="round" stroke-linejoin="round" marker-end="url(#arrow)" />
<rect x="392.61439228763584" y="364.6509215319205" width="112" height="34" rx="4" fill="#eef2ff" stroke="#4338ca" stroke-width="2" />
<text x="448.61439228763584" y="381.6509215319205" text-anchor="middle" dominant-baseline="middle" font-family="sans-serif" font-size="14" fill="#111827">Payments</text>
<rect x="556.3338960236819" y="270.1274219783224" width="112" height="34" rx="4" fill="#eef2ff" stroke="#4338ca" stroke-width="2" />
<text x="612.3338960236819" y="287.1274219783224" text-anchor="middle" dominant-baseline="middle" font-family="sans-serif" font-size="14" fill="#111827">Checkout</text>
<rect x="392.61439228763584" y="553.6979206391168" width="112" height="34" rx="4" fill="#eef2ff" stroke="#4338ca" stroke-width="2" />
<text x="448.61439228763584" y="570.6979206391168" text-anchor="middle" dominant-baseline="middle" font-family="sans-serif" font-size="14" fill="#111827">Orders</text>
<rect x="228.89488855158982" y="270.12742197832233" width="112" height="34" rx="4" fill="#eef2ff" stroke="#4338ca" stroke-width="2" />
<text x="284.8948885515898" y="287.12742197832233" text-anchor="middle" dominant-baseline="middle" font-family="sans-serif" font-size="14" fill="#111827">Subscriptions</text>
<rect x="556.6632299708039" y="24" width="112" height="34" rx="4" fill="#eef2ff" stroke="#4338ca" stroke-width="2" />
<text x="612.6632299708039" y="41" text-anchor="middle" dominant-baseline="middle" font-family="sans-serif" font-size="14" fill="#111827">Web Store</text>
<rect x="761.2287845752717" y="280.5170919259768" width="112" height="34" rx="4" fill="#eef2ff" stroke="#4338ca" stroke-width="2" />
<text x="817.2287845752717" y="297.5170919259768" text-anchor="middle" dominant-baseline="middle" font-family="sans-serif" font-size="14" fill="#111827">Mobile App</text>
<rect x="688.220183423859" y="600.3886735625883" width="112" height="34" rx="4" fill="#eef2ff" stroke="#4338ca" stroke-width="2" />
<text x="744.220183423859" y="617.3886735625883" text-anchor="middle" dominant-baseline="middle" font-family="sans-serif" font-size="14" fill="#111827">Merchant Portal</text>
<rect x="392.61439228763584" y="742.7449197463129" width="112" height="34" rx="4" fill="#eef2ff" stroke="#4338ca" stroke-width="2" />
<text x="448.61439228763584" y="759.7449197463129" text-anchor="middle" dominant-baseline="middle" font-family="sans-serif" font-size="14" fill="#111827">Fulfillment</text>
<rect x="24" y="280.5170919259768" width="112" height="34" rx="4" fill="#eef2ff" stroke="#4338ca" stroke-width="2" />
<text x="80" y="297.5170919259768" text-anchor="middle" dominant-baseline="middle" font-family="sans-serif" font-size="14" fill="#111827">Support Console</text>
<rect x="97.00860115141273" y="600.3886735625883" width="112" height="34" rx="4" fill="#eef2ff" stroke="#4338ca" stroke-width="2" />
<text x="153.00860115141273" y="617.3886735625883" text-anchor="middle" dominant-baseline="middle" font-family="sans-serif" font-size="14" fill="#111827">Finance Export</text>
<rect x="228.56555460446782" y="24" width="112" height="34" rx="4" fill="#eef2ff" stroke="#4338ca" stroke-width="2" />
<text x="284.5655546044678" y="41" text-anchor="middle" dominant-baseline="middle" font-family="sans-serif" font-size="14" fill="#111827">Notifications</text>
<rect x="392.61439228763584" y="931.7919188535093" width="112" height="34" rx="4" fill="#eef2ff" stroke="#4338ca" stroke-width="2" />
<text x="448.61439228763584" y="948.7919188535093" text-anchor="middle" dominant-baseline="middle" font-family="sans-serif" font-size="14" fill="#111827">Analytics</text>
</g>
</svg>