<svg xmlns="http://www.w3.org/2000/svg" width="720" height="720" viewBox="0 0 953.0082304979696 953.0082304979696">
<defs>
<marker id="arrow" markerWidth="8" markerHeight="8" refX="7" refY="4" orient="auto">
<path d="M0,0 L8,4 L0,8 z" fill="#64748b" />
</marker>
</defs>
<rect x="0" y="0" width="953.0082304979696" height="953.0082304979696" fill="#ffffff" />
<g transform="translate(269.396887535748 0)">
<rect x="20" y="20" width="374.2144554264736" height="913.0082304979696" rx="10" fill="#ffffff" stroke="#cbd5e1" stroke-width="1.5" stroke-dasharray="6 4" />
<line x1="20" y1="50" x2="394.2144554264736" y2="50" stroke="#cbd5e1" stroke-width="1" />
<text x="32" y="35" dominant-baseline="middle" font-family="sans-serif" font-size="11" font-weight="600" fill="#64748b">PRODUCTION</text>
<rect x="131.1072277132368" y="172" width="160" height="162" rx="10" fill="#f8fafc" stroke="#94a3b8" stroke-width="1.5" stroke-dasharray="6 4" />
<line x1="131.1072277132368" y1="200" x2="291.1072277132368" y2="200" stroke="#94a3b8" stroke-width="1" />
<text x="143.1072277132368" y="186" dominant-baseline="middle" font-family="sans-serif" font-size="11" font-weight="600" fill="#64748b">EDGE</text>
<rect x="62" y="406" width="298.2144554264736" height="259.0082304979697" rx="10" fill="#f8fafc" stroke="#94a3b8" stroke-width="1.5" stroke-dasharray="6 4" />
<line x1="62" y1="434" x2="360.2144554264736" y2="434" stroke="#94a3b8" stroke-width="1" />
<text x="74" y="420" dominant-baseline="middle" font-family="sans-serif" font-size="11" font-weight="600" fill="#64748b">APPLICATION</text>
<rect x="131.1072277132368" y="737.0082304979696" width="160" height="162" rx="10" fill="#f8fafc" stroke="#94a3b8" stroke-width="1.5" stroke-dasharray="6 4" />
<line x1="131.1072277132368" y1="765.0082304979696" x2="291.1072277132368" y2="765.0082304979696" stroke="#94a3b8" stroke-width="1" />
<text x="143.1072277132368" y="751.0082304979696" dominant-baseline="middle" font-family="sans-serif" font-size="11" font-weight="600" fill="#64748b">DATA</text>
<polyline points="211.1072277132368,100 123.1072277132368,100 123.1072277132368,212 211.1072277132368,212" fill="none" stroke="#64748b" stroke-width="1.5" stroke-linecap="round" stroke-linejoin="round" marker-end="url(#arrow)" />
<polyline points="211.1072277132368,248 211.1072277132368,270" fill="none" stroke="#64748b" stroke-width="1.5" stroke-linecap="round" stroke-linejoin="round" marker-end="url(#arrow)" />
<polyline points="205.0163265897019,306 54,306 54,448 156.96588439292654,448" fill="none" stroke="#64748b" stroke-width="1.5" stroke-linecap="round" stroke-linejoin="round" marker-end="url(#arrow)" />
<polyline points="179.01353054286363,484 242.0759081530016,484 242.0759081530016,529.458025410871 250.0759081530016,529.458025410871" fill="none" stroke="#64748b" stroke-width="1.5" stroke-linecap="round" stroke-linejoin="round" marker-end="url(#arrow)" />
<polyline points="154.1702819868379,484 84,484 84,777.0082304979696 207.81192899579057,777.0082304979696" fill="none" stroke="#64748b" stroke-width="1.5" stroke-linecap="round" stroke-linejoin="round" marker-end="url(#arrow)" />
<polyline points="153.67642343151476,484 153.67642343151476,521.458025410871 84,521.458025410871 84,835.0082304979696 208.30578755111367,835.0082304979696" fill="none" stroke="#64748b" stroke-width="1.5" stroke-linecap="round" stroke-linejoin="round" marker-end="url(#arrow)" />
<polyline points="150.05549350753583,484 150.05549350753583,492 144.81948976185583,492 144.81948976185583,599.0082304979696" fill="none" stroke="#64748b" stroke-width="1.5" stroke-linecap="round" stroke-linejoin="round" marker-end="url(#arrow)" />
<polyline points="178.73548632460694,599.0082304979696 235.47896910186665,599.0082304979696 235.47896910186665,565.458025410871 243.47896910186665,565.458025410871" fill="none" stroke="#64748b" stroke-width="1.5" stroke-linecap="round" stroke-linejoin="round" marker-end="url(#arrow)" />
<polyline points="273.33491958277165,565.458025410871 299.1072277132368,565.458025410871 299.1072277132368,777.0082304979696 215.98676355693874,777.0082304979696" fill="none" stroke="#64748b" stroke-width="1.5" stroke-linecap="round" stroke-linejoin="round" marker-end="url(#arrow)" />
<rect x="159.1072277132368" y="64" width="104" height="36" rx="4" fill="#eef2ff" stroke="#4338ca" stroke-width="2" />
<text x="211.1072277132368" y="82" text-anchor="middle" dominant-baseline="middle" font-family="sans-serif" font-size="14" fill="#111827">Customer</text>
<rect x="159.1072277132368" y="212" width="104" height="36" rx="4" fill="#eef2ff" stroke="#4338ca" stroke-width="2" />
<text x="211.1072277132368" y="230" text-anchor="middle" dominant-baseline="middle" font-family="sans-serif" font-size="14" fill="#111827">CDN</text>
<rect x="159.1072277132368" y="270" width="104" height="36" rx="4" fill="#eef2ff" stroke="#4338ca" stroke-width="2" />
<text x="211.1072277132368" y="288" text-anchor="middle" dominant-baseline="middle" font-family="sans-serif" font-size="14" fill="#111827">Gateway</text>
<rect x="98.87498326939163" y="448" width="104" height="36" rx="4" fill="#eef2ff" stroke="#4338ca" stroke-width="2" />
<text x="150.87498326939163" y="466" text-anchor="middle" dominant-baseline="middle" font-family="sans-serif" font-size="14" fill="#111827">API</text>
<rect x="226.2144554264736" y="529.458025410871" width="104" height="36" rx="4" fill="#eef2ff" stroke="#4338ca" stroke-width="2" />
<text x="278.2144554264736" y="547.458025410871" text-anchor="middle" dominant-baseline="middle" font-family="sans-serif" font-size="14" fill="#111827">Worker</text>
<rect x="159.1072277132368" y="777.0082304979696" width="104" height="36" rx="4" fill="#eef2ff" stroke="#4338ca" stroke-width="2" />
<text x="211.1072277132368" y="795.0082304979696" text-anchor="middle" dominant-baseline="middle" font-family="sans-serif" font-size="14" fill="#111827">Postgres</text>
<rect x="159.1072277132368" y="835.0082304979696" width="104" height="36" rx="4" fill="#eef2ff" stroke="#4338ca" stroke-width="2" />
<text x="211.1072277132368" y="853.0082304979696" text-anchor="middle" dominant-baseline="middle" font-family="sans-serif" font-size="14" fill="#111827">Redis</text>
<rect x="92" y="599.0082304979696" width="104" height="36" rx="4" fill="#eef2ff" stroke="#4338ca" stroke-width="2" />
<text x="144" y="617.0082304979696" text-anchor="middle" dominant-baseline="middle" font-family="sans-serif" font-size="14" fill="#111827">Queue</text>
</g>
</svg>