<svg xmlns="http://www.w3.org/2000/svg" width="720" height="720" viewBox="0 0 1070 1070">
<defs>
<marker id="arrow" markerWidth="8" markerHeight="8" refX="7" refY="4" orient="auto">
<path d="M0,0 L8,4 L0,8 z" fill="#64748b" />
</marker>
</defs>
<rect x="0" y="0" width="1070" height="1070" fill="#ffffff" />
<g transform="translate(0 407)">
<rect x="24" y="24" width="1022" height="208" rx="8" fill="#f8fafc" stroke="#64748b" stroke-width="1.5" />
<line x1="24" y1="60" x2="1046" y2="60" stroke="#94a3b8" />
<text x="36" y="42" font-family="sans-serif" font-size="11" font-weight="600" fill="#475569">ORDERING SYSTEM</text>
<rect x="58" y="80" width="214" height="116" rx="8" fill="#f8fafc" stroke="#64748b" stroke-width="1.5" />
<line x1="58" y1="112" x2="272" y2="112" stroke="#94a3b8" />
<text x="70" y="98" font-family="sans-serif" font-size="11" font-weight="600" fill="#475569">CLIENT</text>
<rect x="378" y="78" width="346" height="120" rx="8" fill="#f8fafc" stroke="#64748b" stroke-width="1.5" />
<line x1="378" y1="110" x2="724" y2="110" stroke="#94a3b8" />
<text x="390" y="96" font-family="sans-serif" font-size="11" font-weight="600" fill="#475569">SERVICES</text>
<rect x="830" y="80" width="182" height="116" rx="8" fill="#f8fafc" stroke="#64748b" stroke-width="1.5" />
<line x1="830" y1="112" x2="1012" y2="112" stroke="#94a3b8" />
<text x="842" y="98" font-family="sans-serif" font-size="11" font-weight="600" fill="#475569">DATA</text>
<polyline points="212,150 264,150 264,138 272,138 378,138 400,138 400,148 408,148" fill="none" stroke="#64748b" stroke-width="1.5" stroke-linecap="round" stroke-linejoin="round" marker-end="url(#arrow)" />
<polyline points="534,145 560,145 560,148 568,148" fill="none" stroke="#64748b" stroke-width="1.5" stroke-linecap="round" stroke-linejoin="round" marker-end="url(#arrow)" />
<polyline points="534,151 542,151 542,118 716,118 716,138 724,138 830,138 850,138 850,150 858,150" fill="none" stroke="#64748b" stroke-width="1.5" stroke-linecap="round" stroke-linejoin="round" marker-end="url(#arrow)" />
<rect x="86" y="128" width="126" height="44" rx="4" fill="#eef2ff" stroke="#4338ca" stroke-width="2" />
<text x="149" y="150" text-anchor="middle" dominant-baseline="middle" font-family="sans-serif" font-size="14" fill="#111827">Web application</text>
<rect x="408" y="126" width="126" height="44" rx="4" fill="#eef2ff" stroke="#4338ca" stroke-width="2" />
<text x="471" y="148" text-anchor="middle" dominant-baseline="middle" font-family="sans-serif" font-size="14" fill="#111827">Orders API</text>
<rect x="568" y="126" width="126" height="44" rx="4" fill="#eef2ff" stroke="#4338ca" stroke-width="2" />
<text x="631" y="148" text-anchor="middle" dominant-baseline="middle" font-family="sans-serif" font-size="14" fill="#111827">Inventory API</text>
<rect x="858" y="128" width="126" height="44" rx="4" fill="#eef2ff" stroke="#4338ca" stroke-width="2" />
<text x="921" y="150" text-anchor="middle" dominant-baseline="middle" font-family="sans-serif" font-size="14" fill="#111827">Orders DB</text>
<rect x="273" y="129" width="72" height="18" rx="3" fill="#ffffff" />
<text x="309" y="138" text-anchor="middle" dominant-baseline="middle" font-family="sans-serif" font-size="11" fill="#334155">HTTPS</text>
<rect x="223.7" y="164" width="42" height="18" rx="3" fill="#ffffff" />
<text x="244.7" y="173" text-anchor="middle" dominant-baseline="middle" font-family="sans-serif" font-size="11" fill="#334155">client</text>
</g>
</svg>